<?xml version="1.0" ?><svg enable-background="new 45.6 168.9 504 504" id="Layer_1" version="1.1" viewBox="45.6 168.9 504 504" xml:space="preserve" xmlns="http://www.w3.org/2000/svg" xmlns:xlink="http://www.w3.org/1999/xlink"><path d="M548.6,420.9c9.6,204.5-46.5,260.6-251,251c-204.5,9.6-260.6-46.5-251-251c-9.6-204.5,46.5-260.6,251-251  C502.2,160.6,558.2,216.6,548.6,420.9z" fill="#3564B7"/><g><path d="M357.6,267.1c-30.1,0-90.1,0-119.9,0c-1.1,0-4.5,1.4-4.5,1.4v5.4v7v144.6v125.8v23.3c0,0,3.4,0.2,4.5,0.2   c30.1,0,90.1,0,119.9,0c1.4,0,4.5-0.2,4.5-0.2v-17.4V425.5V284.9v-11.1v-5.4C362.1,268.4,359,267.1,357.6,267.1z M297.4,546.1   c-27.2,0-49.1-22-49.1-49.1c0-27.2,22-49.1,49.1-49.1s49.1,22,49.1,49.1C346.5,524.1,324.6,546.1,297.4,546.1z M246.7,425.5V287.4   h101.8v138.1H246.7z" fill="#FFFFFF"/><circle cx="297.2" cy="497.2" fill="#FFFFFF" r="23.1"/></g></svg>
