<?xml version="1.0" ?><!DOCTYPE svg  PUBLIC '-//W3C//DTD SVG 1.1//EN'  'http://www.w3.org/Graphics/SVG/1.1/DTD/svg11.dtd'><svg enable-background="new 0 0 24 24" height="24px" id="Layer_1" version="1.1" viewBox="0 0 24 24" width="24px" xml:space="preserve" xmlns="http://www.w3.org/2000/svg" xmlns:xlink="http://www.w3.org/1999/xlink"><g><g><g><g><g><path d="M12.02,21.406c-5.735,0-10.4-3.223-10.4-7.182c0-0.206,0.019-0.435,0.061-0.728c-0.384-0.212-1.389-0.881-1.605-2.164       c-0.072-0.985,0.184-1.71,0.851-2.46c0.645-0.586,1.4-0.889,2.339-0.954C4.36,7.925,5.118,8.467,5.39,8.694       c1.767-1.006,3.9-1.569,6.191-1.637l0.208-0.007l0.007,0.184l0.016-0.001l0.007-0.183l0.963,0.045       c2.177,0.104,4.195,0.653,5.837,1.587c0.706-0.534,1.049-0.724,2.103-0.772h0.001c1.126,0,1.992,0.6,2.33,0.953       c0.495,0.512,0.938,1.085,0.878,2.444c-0.103,1.05-0.969,1.777-1.485,2.123c-0.014,0.24-0.033,0.632-0.033,0.794       C22.412,18.184,17.75,21.406,12.02,21.406z M3.291,8.705C2.553,8.758,1.97,8.987,1.484,9.427       c-0.496,0.561-0.68,1.078-0.628,1.813c0.179,1.045,1.178,1.558,1.292,1.612l0.413,0.217l-0.085,0.437       c-0.046,0.3-0.068,0.525-0.068,0.719c0,3.525,4.313,6.395,9.613,6.395c5.295,0,9.605-2.869,9.605-6.395       c0-0.254,0.046-1.041,0.046-1.041l0.012-0.208l0.178-0.105c0.281-0.17,1.204-0.788,1.286-1.618       c0.044-1.032-0.233-1.401-0.662-1.843c-0.236-0.248-0.9-0.712-1.744-0.712c-0.866,0.04-1.044,0.153-1.738,0.684l-0.318,0.254       l-0.36-0.214c-1.55-0.905-3.482-1.438-5.588-1.539l-0.933-0.044l-0.195,0.006C9.392,7.909,7.342,8.46,5.677,9.438L5.28,9.689       L4.938,9.346C4.916,9.323,4.276,8.712,3.291,8.705z M15.672,14.634c-0.873,0-1.583-0.711-1.583-1.584       c0-0.87,0.71-1.576,1.583-1.576c0.878,0,1.592,0.706,1.592,1.576C17.264,13.923,16.55,14.634,15.672,14.634z M15.672,12.261       c-0.439,0-0.796,0.354-0.796,0.789c0,0.438,0.356,0.796,0.796,0.796c0.444,0,0.805-0.357,0.805-0.796       C16.477,12.614,16.116,12.261,15.672,12.261z M8.337,14.634c-0.873,0-1.583-0.711-1.583-1.584c0-0.87,0.71-1.576,1.583-1.576       c0.877,0,1.591,0.706,1.591,1.576C9.928,13.923,9.215,14.634,8.337,14.634z M8.337,12.261c-0.439,0-0.796,0.354-0.796,0.789       c0,0.438,0.357,0.796,0.796,0.796c0.443,0,0.804-0.357,0.804-0.796C9.141,12.614,8.78,12.261,8.337,12.261z"/></g></g></g></g><g><g><g><g><path d="M19.598,7.144c-1.255,0-2.275-1.021-2.275-2.275c0-1.254,1.021-2.274,2.275-2.274s2.274,1.021,2.274,2.274       C21.872,6.123,20.853,7.144,19.598,7.144z M19.598,3.381c-0.82,0-1.487,0.667-1.487,1.487s0.667,1.488,1.487,1.488       s1.487-0.668,1.487-1.488S20.418,3.381,19.598,3.381z"/></g></g></g><g><g><g><path d="M12.391,7.409l-0.784-0.063c0.009-0.116,0.247-2.857,2.08-3.852c1.072-0.582,2.43-0.435,4.032,0.438l-0.375,0.691       c-1.354-0.736-2.457-0.883-3.282-0.437C12.6,4.979,12.393,7.385,12.391,7.409z"/></g></g></g></g><g><g><g><path d="M12.385,18.908c-2.762,0-4.929-1.948-4.961-1.978l0.532-0.58c0.177,0.162,4.384,3.923,8.313,0.011l0.555,0.559      C15.326,18.411,13.779,18.908,12.385,18.908z"/></g></g></g></g></svg>
